<svg xmlns="http://www.w3.org/2000/svg" xmlns:svg="http://www.w3.org/2000/svg" id="svg8" width="20" height="20" version="1.1" viewBox="0 0 20 20"><defs id="defs2"><marker id="TriangleOutS" orient="auto" refX="0" refY="0" style="overflow:visible"><path id="path994" d="M 5.77,0 -2.88,5 V -5 Z" transform="scale(0.2)" style="fill:#000;fill-opacity:1;fill-rule:evenodd;stroke:#000;stroke-width:1.00000003pt;stroke-opacity:1"/></marker><marker id="TriangleOutM" orient="auto" refX="0" refY="0" style="overflow:visible"><path id="path991" d="M 5.77,0 -2.88,5 V -5 Z" transform="scale(0.4)" style="fill:#000;fill-opacity:1;fill-rule:evenodd;stroke:#000;stroke-width:1.00000003pt;stroke-opacity:1"/></marker><marker id="Arrow1Send" orient="auto" refX="0" refY="0" style="overflow:visible"><path id="path861" d="M 0,0 5,-5 -12.5,0 5,5 Z" transform="matrix(-0.2,0,0,-0.2,-1.2,0)" style="fill:#000;fill-opacity:1;fill-rule:evenodd;stroke:#000;stroke-width:1.00000003pt;stroke-opacity:1"/></marker><marker id="TriangleOutL" orient="auto" refX="0" refY="0" style="overflow:visible"><path id="path988" d="M 5.77,0 -2.88,5 V -5 Z" transform="scale(0.8)" style="fill:#000;fill-opacity:1;fill-rule:evenodd;stroke:#000;stroke-width:1.00000003pt;stroke-opacity:1"/></marker><marker id="Arrow1Lend" orient="auto" refX="0" refY="0" style="overflow:visible"><path id="path849" d="M 0,0 5,-5 -12.5,0 5,5 Z" transform="matrix(-0.8,0,0,-0.8,-10,0)" style="fill:#000;fill-opacity:1;fill-rule:evenodd;stroke:#000;stroke-width:1.00000003pt;stroke-opacity:1"/></marker></defs><metadata id="metadata5"/><g id="layer1" transform="translate(0,-288.0312)"><path style="fill:none;fill-opacity:1;stroke:#000;stroke-width:2;stroke-linecap:butt;stroke-linejoin:miter;stroke-miterlimit:4;stroke-dasharray:none;stroke-opacity:.17351598" id="path909" d="m 1,293.0312 5,5 -5,5 v 4 h 4 l 5,-5 5,5 h 4 v -4 l -5,-5 5,-5 v -4 h -4 l -5,5 -5,-5 H 1 Z"/><path style="fill:#f7f8f8;fill-opacity:1;stroke:none;stroke-width:1px;stroke-linecap:butt;stroke-linejoin:miter;stroke-opacity:1" id="path911" d="M 2.03125,305.99995 1.953125,303.4687 7.40625,298.04682 1.984375,292.62495 2,290.0312 4.59375,290 10,295.4375 15.40625,290 l 2.5625,0.0625 0.0625,2.5625 -5.40625,5.40625 5.375,5.40625 v 2.625 h -2.59375 l -5.375,-5.4375 -5.40625,5.34375 z"/></g></svg>