<svg xmlns="http://www.w3.org/2000/svg" xmlns:svg="http://www.w3.org/2000/svg" id="svg8" width="20" height="20" version="1.1" viewBox="0 0 20 20"><defs id="defs2"><marker id="TriangleOutS" orient="auto" refX="0" refY="0" style="overflow:visible"><path id="path994" d="M 5.77,0 -2.88,5 V -5 Z" transform="scale(0.2)" style="fill:#000;fill-opacity:1;fill-rule:evenodd;stroke:#000;stroke-width:1.00000003pt;stroke-opacity:1"/></marker><marker id="TriangleOutM" orient="auto" refX="0" refY="0" style="overflow:visible"><path id="path991" d="M 5.77,0 -2.88,5 V -5 Z" transform="scale(0.4)" style="fill:#000;fill-opacity:1;fill-rule:evenodd;stroke:#000;stroke-width:1.00000003pt;stroke-opacity:1"/></marker><marker id="Arrow1Send" orient="auto" refX="0" refY="0" style="overflow:visible"><path id="path861" d="M 0,0 5,-5 -12.5,0 5,5 Z" transform="matrix(-0.2,0,0,-0.2,-1.2,0)" style="fill:#000;fill-opacity:1;fill-rule:evenodd;stroke:#000;stroke-width:1.00000003pt;stroke-opacity:1"/></marker><marker id="TriangleOutL" orient="auto" refX="0" refY="0" style="overflow:visible"><path id="path988" d="M 5.77,0 -2.88,5 V -5 Z" transform="scale(0.8)" style="fill:#000;fill-opacity:1;fill-rule:evenodd;stroke:#000;stroke-width:1.00000003pt;stroke-opacity:1"/></marker><marker id="Arrow1Lend" orient="auto" refX="0" refY="0" style="overflow:visible"><path id="path849" d="M 0,0 5,-5 -12.5,0 5,5 Z" transform="matrix(-0.8,0,0,-0.8,-10,0)" style="fill:#000;fill-opacity:1;fill-rule:evenodd;stroke:#000;stroke-width:1.00000003pt;stroke-opacity:1"/></marker></defs><metadata id="metadata5"/><g id="layer1" transform="translate(0,-288.0312)"><path style="fill:none;fill-opacity:1;stroke:#000;stroke-width:4.19642401;stroke-miterlimit:4;stroke-dasharray:none;stroke-opacity:.11000001" id="path843" d="m 9.9999999,292.12941 c 3.2594701,0 5.9017941,2.64979 5.9017881,5.90178 0,3.25201 -2.642322,5.9018 -5.9017881,5.9018 -3.2594651,0 -5.9017847,-2.64979 -5.901788,-5.9018"/><path style="fill:#000;fill-opacity:.11415525;stroke:none;stroke-width:1px;stroke-linecap:butt;stroke-linejoin:miter;stroke-opacity:1" id="path5027" d="m 0,299.07168 2.0703125,0.004 -0.081548,-1.07839 4.1838914,0.0723 0.1515624,1.00219 H 8 v -1.5 l -3.7857609,-5.5 L 0,297.57168 Z"/><path style="fill:none;fill-opacity:1;stroke:gray;stroke-width:2.05337286;stroke-miterlimit:4;stroke-dasharray:none;stroke-opacity:1" id="path843-3" d="m 9.9999991,292.05789 c 3.2989729,0 5.9733169,2.67433 5.9733149,5.97331 -3e-6,3.29897 -2.674347,5.97331 -5.9733149,5.97331 C 6.701032,304.00451 4.0000034,301.33017 4,298.0312"/><path style="fill:gray;fill-opacity:1;stroke:none;stroke-width:1.00947893px;stroke-linecap:butt;stroke-linejoin:miter;stroke-opacity:1" id="path5044" d="M 1,298.06929 H 7 L 4.1285714,293.9931 Z"/><path style="fill:#000;fill-opacity:.11000001;stroke:none;stroke-width:1.10261071px;stroke-linecap:butt;stroke-linejoin:miter;stroke-opacity:1" id="path5046" d="M 10.00358,290.02839 H 8.942761 v 4.20075 h 1.060364 z"/></g></svg>