<svg xmlns="http://www.w3.org/2000/svg" xmlns:svg="http://www.w3.org/2000/svg" xmlns:xlink="http://www.w3.org/1999/xlink" id="svg2" width="12" height="31" version="1.1"><defs id="defs4"><linearGradient id="linearGradient3816"><stop id="stop3824" offset="0" style="stop-color:#5d5b5b;stop-opacity:1"/><stop style="stop-color:#484546;stop-opacity:1" id="stop3820" offset="1"/></linearGradient><linearGradient id="linearGradient3800"><stop style="stop-color:#000;stop-opacity:1" id="stop3802" offset="0"/><stop style="stop-color:#000;stop-opacity:0" id="stop3804" offset="1"/></linearGradient><linearGradient id="linearGradient3822" x1="49.815" x2="49.805" y1="992.998" y2="1024.574" gradientTransform="matrix(1.1370274,0,0,0.85918958,-43.540756,170.63012)" gradientUnits="userSpaceOnUse" xlink:href="#linearGradient3816"/><linearGradient id="linearGradient3822-0" x1="83.786" x2="83.62" y1="995.262" y2="1024.369" gradientUnits="userSpaceOnUse" xlink:href="#linearGradient3816-3"/><linearGradient id="linearGradient3816-3"><stop id="stop3824-8" offset="0" style="stop-color:#5d4e4f;stop-opacity:1"/><stop style="stop-color:#4e3f40;stop-opacity:1" id="stop3820-7" offset="1"/></linearGradient><linearGradient id="linearGradient3860" x1="83.786" x2="83.62" y1="995.262" y2="1024.369" gradientTransform="translate(0.13621466,-0.13156849)" gradientUnits="userSpaceOnUse" xlink:href="#linearGradient3816-3"/></defs><metadata id="metadata7"/><g id="layer4" transform="translate(0,-1021.3622)" style="display:inline"><path style="display:inline;fill:#717171;fill-opacity:1;stroke:none" id="rect3007-3-9" d="m 6.5000001,1021.8622 c 2.77,0 4.9999999,2.23 4.9999999,5 v 5 c 0,2.77 -2.2299999,5 -4.9999999,5 h -1 c -2.77,0 -5.00000003,-2.23 -5.00000004,-5 l -3e-8,-10 z"/><path style="display:inline;fill:#fff;fill-opacity:.17647059;stroke:none" id="rect3007-3-9-8" d="m 5,1037.3622 h 2 c 2.77,0 5,2.23 5,5 v 5 c 0,2.77 -2.23,5 -5,5 H 0 v -10 c 0,-2.77 2.23,-5 5,-5 z"/><path style="display:inline;fill:url(#linearGradient3822);fill-opacity:1;stroke:none" id="rect3007" d="m 7,1023.8622 c 2.77,0 5,2.23 5,5 v 17 c 0,2.77 -2.23,5 -5,5 H 0 v -27 z"/><path style="display:inline;fill:none;stroke:#191919;stroke-width:.99655598;stroke-opacity:1" id="rect3007-3" d="m 0.49913899,1050.8637 6.00101731,2e-4 c 2.7708672,10e-5 5.0015657,-2.2302 5.0015657,-5.0006 v -19.0022 c 0,-2.7704 -2.2306985,-5.0007 -5.0015657,-5.0006 l -6.00101731,2e-4 v 0 z" clip-path="none"/></g></svg>