<svg xmlns="http://www.w3.org/2000/svg" xmlns:svg="http://www.w3.org/2000/svg" xmlns:xlink="http://www.w3.org/1999/xlink" id="svg2" width="33" height="34" version="1.1"><defs id="defs4"><linearGradient id="linearGradient3816"><stop id="stop3824" offset="0" style="stop-color:#212121;stop-opacity:1"/><stop style="stop-color:#2a2a2a;stop-opacity:1" id="stop836" offset=".255"/><stop id="stop838" offset=".878" style="stop-color:#2a2a2a;stop-opacity:1"/><stop style="stop-color:#3c3c3c;stop-opacity:1" id="stop832" offset=".924"/><stop style="stop-color:#353535;stop-opacity:1" id="stop3820" offset="1"/></linearGradient><linearGradient id="linearGradient3800"><stop style="stop-color:#000;stop-opacity:1" id="stop3802" offset="0"/><stop style="stop-color:#000;stop-opacity:0" id="stop3804" offset="1"/></linearGradient><linearGradient id="linearGradient3822-0" x1="83.786" x2="83.62" y1="995.262" y2="1024.369" gradientUnits="userSpaceOnUse" xlink:href="#linearGradient3816-3"/><linearGradient id="linearGradient3816-3"><stop id="stop3824-8" offset="0" style="stop-color:#5d4e4f;stop-opacity:1"/><stop style="stop-color:#4e3f40;stop-opacity:1" id="stop3820-7" offset="1"/></linearGradient><linearGradient id="linearGradient3860" x1="83.786" x2="83.62" y1="995.262" y2="1024.369" gradientTransform="translate(0.13621466,-0.13156849)" gradientUnits="userSpaceOnUse" xlink:href="#linearGradient3816-3"/><linearGradient id="linearGradient960" x1="49.755" x2="49.745" y1="991.18" y2="1029.666" gradientTransform="matrix(-1.0422751,0,0,0.85918958,47.324462,170.63012)" gradientUnits="userSpaceOnUse" xlink:href="#linearGradient3816"/></defs><metadata id="metadata7"/><g id="layer4" transform="translate(12.561922,-1021.3622)" style="display:inline"><path id="rect3007-9" d="m 4.581051,1021.9872 c 1.65199,0.014 2.64331,2.4453 3.581637,4.8125 l 8.0625,22.25 c 1.284172,1.869 2.019064,2.2982 4.21289,3.0125 v 3.3 H 4.456051 m 0,0 0.125,-33.375 h -1 c -1.65199,0.014 -2.95580998,2.5703 -3.831637,4.8125 l -8.0625004,22.25 c -1.4716715,1.869 -2.0550096,2.0857 -4.2488356,3.1125 v 3.2" style="display:inline;fill:url(#linearGradient960);fill-opacity:1;stroke:none;stroke-width:.95742708"/><path id="rect3007-3-3-3" d="m 20.438078,1051.8622 c -1.696757,-0.044 -3.447995,-1.7858 -4.013671,-3.2031 l -9.009766,-23.7989 c -0.612982,-1.5358 -1.314348,-2.984 -2.95859,-2.998 h -1 c -1.644242,0.014 -2.345608,1.4622 -2.95859,2.998 l -9.0097661,23.7989 c -0.5656764,1.4173 -2.3528599,3.1591 -4.0496169,3.2031" style="display:inline;fill:none;stroke:#191919;stroke-width:.99963582;stroke-miterlimit:4;stroke-dasharray:none;stroke-opacity:1"/><path style="fill:#5a5a5a;fill-opacity:1;stroke:none;stroke-width:.86235833;stroke-miterlimit:4;stroke-dasharray:none;stroke-opacity:1" id="rect854" d="m -12.561922,1051.8622 h 33 v 1.5 h -33 z"/><path style="fill:none;stroke:#191919;stroke-width:1px;stroke-linecap:butt;stroke-linejoin:miter;stroke-opacity:1" id="path852" d="m -12.561922,1051.8622 h 33"/></g></svg>