<svg xmlns="http://www.w3.org/2000/svg" xmlns:svg="http://www.w3.org/2000/svg" xmlns:xlink="http://www.w3.org/1999/xlink" id="svg2" width="33" height="34" version="1.1"><defs id="defs4"><linearGradient id="linearGradient3816"><stop id="stop3824" offset="0" style="stop-color:#5c5c5c;stop-opacity:1"/><stop style="stop-color:#474747;stop-opacity:1" id="stop832" offset=".15"/><stop style="stop-color:#353535;stop-opacity:1" id="stop3820" offset="1"/></linearGradient><linearGradient id="linearGradient3800"><stop style="stop-color:#000;stop-opacity:1" id="stop3802" offset="0"/><stop style="stop-color:#000;stop-opacity:0" id="stop3804" offset="1"/></linearGradient><linearGradient id="linearGradient3822-0" x1="83.786" x2="83.62" y1="995.262" y2="1024.369" gradientUnits="userSpaceOnUse" xlink:href="#linearGradient3816-3"/><linearGradient id="linearGradient3816-3"><stop id="stop3824-8" offset="0" style="stop-color:#5d4e4f;stop-opacity:1"/><stop style="stop-color:#4e3f40;stop-opacity:1" id="stop3820-7" offset="1"/></linearGradient><linearGradient id="linearGradient3860" x1="83.786" x2="83.62" y1="995.262" y2="1024.369" gradientTransform="translate(0.13621466,-0.13156849)" gradientUnits="userSpaceOnUse" xlink:href="#linearGradient3816-3"/><linearGradient id="linearGradient960" x1="49.815" x2="49.745" y1="992.998" y2="1029.666" gradientTransform="matrix(-1.0422751,0,0,0.85918958,47.324462,170.63012)" gradientUnits="userSpaceOnUse" xlink:href="#linearGradient3816"/></defs><metadata id="metadata7"/><g id="layer4" transform="translate(12.561922,-1021.3622)" style="display:inline"><path id="rect3007-3-9-0" d="m 4.456051,1021.8642 c 1.642985,0.016 2.363526,1.4552 2.956637,2.998 l 2.6875,7.375 c 0.505083,1.395 -2.0996108,4.6975 -2.0996108,4.6975 l -3.0625002,1.715 -1.6695261,0.156 z m -1,0 c -1.642985,0.016 -2.363526,1.4552 -2.956637,2.998 l -2.75,7.3125 c -0.5050823,1.2075 1.1261647,4.1975 1.1261647,4.1975 l 2.3125002,2.2775 2.080472,0.219 1.1875001,-17.0065 z" style="display:inline;fill:#717171;fill-opacity:1;stroke:none"/><path id="rect3007-3-9-0-3" d="m 3.956051,1035.7642 c 1.642985,0.016 7.613526,0.2052 8.206637,1.748 l 4.8125,12.625 c 0.817583,0.8325 3.46289,2.135 3.46289,2.135 v 2.09 l -15.982027,-0.094 z m -1,0 c -1.642985,0.016 -6.5510263,0.1427 -7.1441373,1.6855 l -4.8749997,12.6875 c -0.817583,0.8325 -3.498836,2.135 -3.498836,2.135 v 2.09 l 17.017973,-0.031 -0.5,-18.569 z" style="display:inline;fill:#5a5a5a;fill-opacity:1;stroke:none"/><path id="rect3007-9" d="m 4.456051,1023.3622 c 1.65199,0.014 2.89331,1.2578 3.706637,3.4375 l 8.0625,22.25 c 0.971672,2.6815 1.581564,3.5982 4.21289,4.3125 v 2 H 4.456051 m 0,0 v -32 h -1 c -1.65199,0.014 -3.01830999,1.3828 -3.706637,3.4375 l -8.0625004,22.25 c -0.9716715,2.6815 -1.61751,3.5982 -4.2488356,4.3125 v 2" style="display:inline;fill:url(#linearGradient960);fill-opacity:1;stroke:none;stroke-width:.95742708"/><path id="rect3007-3-3-3" d="m 20.438078,1051.8622 c -1.696757,-0.044 -3.447995,-1.7858 -4.013671,-3.2031 l -9.009766,-23.7989 c -0.612982,-1.5358 -1.314348,-2.984 -2.95859,-2.998 h -1 c -1.644242,0.014 -2.345608,1.4622 -2.95859,2.998 l -9.0097661,23.7989 c -0.5656764,1.4173 -2.3528599,3.1591 -4.0496169,3.2031" style="display:inline;fill:none;stroke:#191919;stroke-width:.99963582;stroke-miterlimit:4;stroke-dasharray:none;stroke-opacity:1"/></g></svg>